<svg width="8" height="8" viewBox="0 0 8 8" fill="none" xmlns="http://www.w3.org/2000/svg">
<path fill-rule="evenodd" clip-rule="evenodd" d="M5.494 1.41332C5.99533 1.70065 5.85333 2.54865 5.74 3.00599C5.876 3.04465 6.042 3.09732 6.20867 3.16665H5.32533C5.17658 3.13614 5.02669 3.11145 4.876 3.09265C4.908 3.14265 4.93967 3.19332 4.97067 3.24432C4.89374 3.28605 4.82685 3.34407 4.77467 3.41432C4.70211 3.29406 4.62631 3.1758 4.54733 3.05965C4.18329 3.03219 3.8177 3.03219 3.45367 3.05965C3.24817 3.35932 3.06565 3.67411 2.90767 4.00132C3.06633 4.32865 3.25033 4.64465 3.45667 4.94465C3.82 4.96799 4.186 4.96799 4.54933 4.94232C4.58933 4.88299 4.62833 4.82299 4.66667 4.76232V5.22365C4.51 5.44632 4.35 5.64732 4.18967 5.82165C4.30333 5.93065 4.47633 6.09299 4.66667 6.22065V6.51065C4.412 6.37065 4.177 6.16399 4.011 6.00465C3.665 6.33732 2.99933 6.87032 2.49667 6.58199C1.99733 6.29532 2.14333 5.47365 2.25933 5.01099C1.797 4.87999 1 4.57165 1 3.99499C1 3.41665 1.79767 3.13365 2.263 3.00232C2.14733 2.54232 1.99367 1.70832 2.49233 1.42099C2.99333 1.13265 3.661 1.67899 4.00267 2.00465C4.346 1.67565 4.995 1.12732 5.494 1.41332ZM2.508 5.07332C2.42267 5.41432 2.25233 6.14765 2.62467 6.36132C2.999 6.57565 3.615 6.03099 3.83133 5.82265C3.6461 5.62327 3.47418 5.41192 3.31667 5.18999C3.0449 5.16934 2.77451 5.13036 2.508 5.07332ZM2.332 3.24765C1.98867 3.34432 1.25667 3.56399 1.25667 3.99499C1.25667 4.42665 2.001 4.67232 2.32867 4.76565C2.40433 4.51965 2.50433 4.26199 2.62467 4.00132C2.51054 3.75696 2.41277 3.5053 2.332 3.24799M3.82333 2.18665C3.575 1.95065 2.99467 1.42665 2.62067 1.64165C2.24733 1.85665 2.41833 2.56832 2.51133 2.93932C2.7753 2.88106 3.04274 2.83987 3.312 2.81599C3.46833 2.59513 3.63915 2.38489 3.82333 2.18665ZM4.356 2.79265C4.23933 2.63832 4.121 2.49599 4.00267 2.36899C3.87718 2.50422 3.75837 2.6455 3.64667 2.79232C3.88299 2.78138 4.11969 2.78149 4.356 2.79265ZM2.58067 3.18499C2.63267 3.35232 2.69667 3.52532 2.77133 3.70165C2.87933 3.49299 2.99733 3.28965 3.12467 3.09232C2.93467 3.11565 2.752 3.14699 2.58067 3.18499ZM2.57733 4.82765C2.74833 4.86465 2.93367 4.89432 3.13 4.91599C3.00088 4.71678 2.8813 4.51155 2.77167 4.30099C2.69533 4.48099 2.63033 4.65765 2.57733 4.82765ZM3.64867 5.20965C3.76187 5.35872 3.88235 5.50211 4.00967 5.63932C4.127 5.51065 4.245 5.36632 4.362 5.20832C4.12434 5.21868 3.88636 5.21913 3.64867 5.20965ZM5.49167 2.94199C5.57333 2.61065 5.73967 1.84865 5.36567 1.63432C4.99533 1.42165 4.43367 1.94565 4.18233 2.18665C4.36529 2.38479 4.53468 2.59505 4.68933 2.81599C4.97233 2.84265 5.24267 2.88499 5.49167 2.94199ZM4 3.46199C4.296 3.46199 4.53567 3.70065 4.53567 3.99532C4.53567 4.28932 4.29567 4.52799 4 4.52799C3.92983 4.52816 3.86031 4.51452 3.79542 4.48782C3.73052 4.46113 3.67152 4.42192 3.62178 4.37243C3.57204 4.32293 3.53253 4.26413 3.50552 4.19937C3.4785 4.13461 3.46451 4.06516 3.46433 3.99499C3.46433 3.70065 3.70433 3.46232 4 3.46232" fill="white"/>
<path fill-rule="evenodd" clip-rule="evenodd" d="M5.29998 3.33334C5.04231 3.33334 4.83331 3.53868 4.83331 3.79168V6.54168C4.83331 6.79501 5.04231 7.00001 5.29998 7.00001H6.69998C6.95765 7.00001 7.16665 6.79468 7.16665 6.54168V3.79168C7.16665 3.53834 6.95765 3.33334 6.69998 3.33334H5.29998ZM5.99998 6.54168C6.12898 6.54168 6.23331 6.43901 6.23331 6.31268C6.23305 6.2823 6.22681 6.25227 6.21494 6.2243C6.20307 6.19633 6.18581 6.17098 6.16415 6.14968C6.14248 6.12839 6.11683 6.11157 6.08866 6.10018C6.06049 6.0888 6.03036 6.08308 5.99998 6.08334C5.87098 6.08334 5.76665 6.18601 5.76665 6.31268C5.76665 6.43934 5.87098 6.54168 5.99998 6.54168Z" fill="white"/>
</svg>
